<?xml version="1.0" ?><!DOCTYPE svg PUBLIC '-//W3C//DTD SVG 1.1//EN'  'http://www.w3.org/Graphics/SVG/1.1/DTD/svg11.dtd'><svg height="32" fill="#4C3F91" version="1.1" viewBox="0 0 32 32" width="32" xmlns="http://www.w3.org/2000/svg" xmlns:xlink="http://www.w3.org/1999/xlink"><g/><path d="M31.454 32.013h-30.908c-0.276 0-0.5-0.224-0.5-0.5v-31.026c0-0.276 0.224-0.5 0.5-0.5h30.908c0.276 0 0.5 0.224 0.5 0.5v31.025c0 0.277-0.224 0.501-0.5 0.501zM1.046 31.013h29.908v-30.026h-29.908v30.026z"  /><path d="M31.454 32.013h-12.906c-0.276 0-0.5-0.224-0.5-0.5v-13.017c0-0.276 0.224-0.5 0.5-0.5h12.906c0.276 0 0.5 0.224 0.5 0.5v13.017c0 0.276-0.224 0.5-0.5 0.5zM19.048 31.013h11.906v-12.017h-11.906v12.017z"  /><path d="M31.454 32.013h-23.132c-0.276 0-0.5-0.224-0.5-0.5v-23.25c0-0.276 0.224-0.5 0.5-0.5h23.132c0.276 0 0.5 0.224 0.5 0.5v23.25c0 0.276-0.224 0.5-0.5 0.5zM8.822 31.013h22.132v-22.25h-22.132v22.25z"  /><path d="M25.694 21.794h-4.832c-0.207 0-0.375-0.168-0.375-0.375v-1.166c0-0.207 0.168-0.375 0.375-0.375h4.832c0.207 0 0.375 0.168 0.375 0.375v1.166c0 0.207-0.168 0.375-0.375 0.375zM21.237 21.044h4.082v-0.416h-4.082v0.416z"/><path d="M21.149 11.802h-10.568c-0.207 0-0.375-0.168-0.375-0.375v-1.167c0-0.207 0.168-0.375 0.375-0.375h10.568c0.207 0 0.375 0.168 0.375 0.375v1.167c0 0.207-0.168 0.375-0.375 0.375zM10.956 11.052h9.818v-0.417h-9.818v0.417z"  /><path d="M16.92 3.824h-13.916c-0.207 0-0.375-0.168-0.375-0.375v-1.168c0-0.207 0.168-0.375 0.375-0.375h13.916c0.207 0 0.375 0.168 0.375 0.375v1.168c0 0.207-0.168 0.375-0.375 0.375zM3.379 3.074h13.166v-0.418h-13.166v0.418z"/></svg>