<?xml version="1.0" ?><!DOCTYPE svg  PUBLIC '-//W3C//DTD SVG 1.1//EN'  'http://www.w3.org/Graphics/SVG/1.1/DTD/svg11.dtd'><svg enable-background="new 0 0 64 64" height="64px" id="Layer_1" version="1.1" viewBox="0 0 64 64" fill="#4C3F91"  width="64px" xml:space="preserve" xmlns="http://www.w3.org/2000/svg" xmlns:xlink="http://www.w3.org/1999/xlink"><path d="M19,2.875H3.5c-0.829,0-1.5,0.671-1.5,1.5v19.979c0,0.829,0.671,1.5,1.5,1.5H19c0.829,0,1.5-0.671,1.5-1.5V4.375  C20.5,3.546,19.829,2.875,19,2.875z M17.5,22.854H5V5.875h12.5V22.854z"/><path d="M19,28.773H3.5c-0.829,0-1.5,0.671-1.5,1.5v6.166c0,0.828,0.671,1.5,1.5,1.5H19c0.829,0,1.5-0.672,1.5-1.5v-6.166  C20.5,29.445,19.829,28.773,19,28.773z M17.5,34.939H5v-3.166h12.5V34.939z"/><path d="M19,40.859H3.5c-0.829,0-1.5,0.672-1.5,1.5v17.266c0,0.828,0.671,1.5,1.5,1.5H19c0.829,0,1.5-0.672,1.5-1.5V42.359  C20.5,41.531,19.829,40.859,19,40.859z M17.5,58.125H5V43.859h12.5V58.125z"/><path d="M40,2.875H24.5c-0.829,0-1.5,0.671-1.5,1.5v14.25c0,0.829,0.671,1.5,1.5,1.5H40c0.828,0,1.5-0.671,1.5-1.5V4.375  C41.5,3.546,40.828,2.875,40,2.875z M38.5,17.125H26V5.875h12.5V17.125z"/><path d="M40,23.125H24.5c-0.829,0-1.5,0.671-1.5,1.5V46.5c0,0.828,0.671,1.5,1.5,1.5H40c0.828,0,1.5-0.672,1.5-1.5V24.625  C41.5,23.796,40.828,23.125,40,23.125z M38.5,45H26V26.125h12.5V45z"/><path d="M40,51H24.5c-0.829,0-1.5,0.672-1.5,1.5v7.125c0,0.828,0.671,1.5,1.5,1.5H40c0.828,0,1.5-0.672,1.5-1.5V52.5  C41.5,51.672,40.828,51,40,51z M38.5,58.125H26V54h12.5V58.125z"/><path d="M60.5,2.875H45c-0.828,0-1.5,0.671-1.5,1.5v35.171c0,0.828,0.672,1.5,1.5,1.5h15.5c0.828,0,1.5-0.672,1.5-1.5V4.375  C62,3.546,61.328,2.875,60.5,2.875z M59,38.046H46.5V5.875H59V38.046z"/><path d="M60.5,44.346H45c-0.828,0-1.5,0.672-1.5,1.5v13.779c0,0.828,0.672,1.5,1.5,1.5h15.5c0.828,0,1.5-0.672,1.5-1.5V45.846  C62,45.018,61.328,44.346,60.5,44.346z M59,58.125H46.5V47.346H59V58.125z"/></svg>